<?xml version="1.0" standalone="no"?>
<!DOCTYPE svg PUBLIC "-//W3C//DTD SVG 20010904//EN"
 "http://www.w3.org/TR/2001/REC-SVG-20010904/DTD/svg10.dtd">
<svg version="1.0" xmlns="http://www.w3.org/2000/svg"
 width="512.000000pt" height="512.000000pt" viewBox="0 0 512.000000 512.000000"
 preserveAspectRatio="xMidYMid meet">
<metadata>
Created by potrace 1.14, written by Peter Selinger 2001-2017
</metadata>
<g transform="translate(0.000000,512.000000) scale(0.100000,-0.100000)"
fill="#000000" stroke="none">
<path d="M0 2560 l0 -2560 2560 0 2560 0 0 2560 0 2560 -2560 0 -2560 0 0
-2560z m1812 853 c244 -115 393 -459 375 -867 -8 -171 -41 -306 -108 -444 -61
-125 -154 -230 -251 -283 -60 -32 -68 -34 -163 -34 -87 0 -107 3 -155 26 -68
32 -159 114 -211 191 -219 322 -221 892 -4 1218 136 204 335 278 517 193z
m1189 -461 c106 -47 189 -162 230 -319 30 -113 30 -305 0 -428 -45 -184 -146
-327 -277 -391 -52 -25 -70 -29 -149 -29 -49 0 -102 3 -118 8 l-27 8 2 -168 3
-167 30 -8 c17 -3 50 -10 74 -15 56 -10 78 -39 55 -71 -15 -22 -19 -22 -243
-22 -239 0 -251 2 -251 46 0 28 16 40 65 49 22 4 46 11 53 17 9 8 12 149 12
644 0 616 -1 634 -19 644 -11 5 -33 10 -49 10 -33 0 -65 30 -60 56 4 21 34 37
95 54 23 6 61 26 85 45 91 73 121 71 126 -9 l3 -46 49 41 c93 78 209 97 311
51z m828 17 c28 -6 65 -20 83 -33 l33 -22 7 -144 c8 -160 0 -190 -46 -190 -31
0 -40 12 -71 100 -51 142 -93 190 -166 190 -22 0 -41 -10 -65 -34 -29 -29 -34
-41 -34 -80 0 -85 47 -145 202 -260 95 -71 149 -131 191 -216 27 -55 33 -78
35 -152 5 -114 -14 -171 -79 -242 -65 -71 -127 -98 -239 -104 -95 -5 -197 15
-240 47 -24 17 -25 23 -31 162 -6 154 -2 184 30 194 38 12 59 -11 85 -98 44
-142 86 -193 163 -204 91 -12 146 49 145 161 0 109 -47 177 -201 290 -163 120
-224 212 -225 340 0 208 195 344 423 295z"/>
<path d="M1575 3324 c-106 -58 -173 -193 -206 -417 -18 -119 -16 -500 3 -612
23 -134 53 -224 97 -292 86 -133 224 -159 334 -62 120 105 175 362 164 754
-10 338 -71 534 -190 613 -50 34 -155 42 -202 16z"/>
<path d="M2739 2807 c-19 -12 -44 -42 -56 -67 -23 -43 -23 -51 -23 -395 0
-322 2 -353 19 -392 39 -84 154 -99 230 -30 168 155 187 717 29 864 -52 48
-143 58 -199 20z"/>
</g>
</svg>
